<svg xmlns="http://www.w3.org/2000/svg" width="2000" height="1105" viewBox="0 0 2000 1105" font-family="Arial, Helvetica, sans-serif">
<rect width="2000" height="1105" fill="#ffffff"/>
<rect x="0" y="0" width="1998" height="194" fill="#f5f5f5" stroke="#666666" stroke-width="1"/>
<rect x="0" y="274" width="1998" height="194" fill="#f5f5f5" stroke="#666666" stroke-width="1"/>
<rect x="0" y="548" width="1998" height="194" fill="#f5f5f5" stroke="#666666" stroke-width="1"/>
<rect x="0" y="822" width="1998" height="210" fill="#f5f5f5" stroke="#666666" stroke-width="1"/>
<path d="M1102.8960000000002,194 L1102.8960000000002,274" fill="none" stroke="#000000" stroke-width="2.5"/><polygon points="1102.9,274.0 1097.9,263.0 1107.9,263.0" fill="#000000"/>
<path d="M1102.8960000000002,468 L1102.8960000000002,548" fill="none" stroke="#000000" stroke-width="2.5"/><polygon points="1102.9,548.0 1097.9,537.0 1107.9,537.0" fill="#000000"/>
<path d="M1102.8960000000002,742 L1102.8960000000002,822" fill="none" stroke="#000000" stroke-width="2.5"/><polygon points="1102.9,822.0 1097.9,811.0 1107.9,811.0" fill="#000000"/>
<path d="M877.9826,161 L878.0,226.0 Q878,234 870.0,234.0 L672.0,234.0 Q664,234 664.0,242.0 L664.0,500.0 Q664,508 672.0,508.0 L724.0,508.0 Q732,508 732.0,516.0 L732.044,581" fill="none" stroke="#666666" stroke-width="1.2" stroke-dasharray="6 4"/><polygon points="732.0,581.0 727.0,570.0 737.0,570.0" fill="#666666"/>
<text x="26" y="67.3" font-size="20" text-anchor="start" fill="#1a1a1a" xml:space="preserve"><tspan font-weight="bold">User Interface</tspan></text><text x="26" y="91.9" font-size="19" text-anchor="start" fill="#1a1a1a" xml:space="preserve"><tspan>Presentation</tspan></text><text x="26" y="116.3" font-size="19" text-anchor="start" fill="#1a1a1a" xml:space="preserve"></text><text x="26" y="140.6" font-size="19" text-anchor="start" fill="#1a1a1a" xml:space="preserve"><tspan>Browser</tspan></text>
<text x="26" y="352.8" font-size="20" text-anchor="start" fill="#1a1a1a" xml:space="preserve"><tspan font-weight="bold">Business</tspan></text><text x="26" y="378.4" font-size="20" text-anchor="start" fill="#1a1a1a" xml:space="preserve"><tspan font-weight="bold">Logic Layer</tspan></text><text x="26" y="403.1" font-size="19" text-anchor="start" fill="#1a1a1a" xml:space="preserve"><tspan>Business logic</tspan></text>
<text x="26" y="626.8" font-size="20" text-anchor="start" fill="#1a1a1a" xml:space="preserve"><tspan font-weight="bold">Data Access</tspan></text><text x="26" y="652.4" font-size="20" text-anchor="start" fill="#1a1a1a" xml:space="preserve"><tspan font-weight="bold">Layer</tspan></text><text x="26" y="677.1" font-size="19" text-anchor="start" fill="#1a1a1a" xml:space="preserve"><tspan>Data access</tspan></text>
<text x="26" y="897.3" font-size="20" text-anchor="start" fill="#1a1a1a" xml:space="preserve"><tspan font-weight="bold">External</tspan></text><text x="26" y="921.9" font-size="19" text-anchor="start" fill="#1a1a1a" xml:space="preserve"><tspan>Data and AI</tspan></text><text x="26" y="946.3" font-size="19" text-anchor="start" fill="#1a1a1a" xml:space="preserve"></text><text x="26" y="970.6" font-size="19" text-anchor="start" fill="#1a1a1a" xml:space="preserve"><tspan>Cloud services</tspan></text>
<rect x="242" y="33" width="549" height="128" rx="14" fill="#ffffff" stroke="#333333" stroke-width="1"/><text x="516.5" y="79.5" font-size="20" text-anchor="middle" fill="#1a1a1a" xml:space="preserve"><tspan font-weight="bold">Access</tspan></text><text x="516.5" y="104.1" font-size="19" text-anchor="middle" fill="#1a1a1a" xml:space="preserve"><tspan>login · company and employee registration ·</tspan></text><text x="516.5" y="128.4" font-size="19" text-anchor="middle" fill="#1a1a1a" xml:space="preserve"><tspan>password recovery</tspan></text>
<rect x="830" y="33" width="549" height="128" rx="14" fill="#ffffff" stroke="#333333" stroke-width="1"/><text x="1104.5" y="79.5" font-size="20" text-anchor="middle" fill="#1a1a1a" xml:space="preserve"><tspan font-weight="bold">Employee</tspan></text><text x="1104.5" y="104.1" font-size="19" text-anchor="middle" fill="#1a1a1a" xml:space="preserve"><tspan>diagnostic · learning path · AI chat · assessments ·</tspan></text><text x="1104.5" y="128.4" font-size="19" text-anchor="middle" fill="#1a1a1a" xml:space="preserve"><tspan>personal dashboard</tspan></text>
<rect x="1416" y="33" width="549" height="128" rx="14" fill="#ffffff" stroke="#333333" stroke-width="1"/><text x="1690.5" y="79.5" font-size="20" text-anchor="middle" fill="#1a1a1a" xml:space="preserve"><tspan font-weight="bold">Administrator</tspan></text><text x="1690.5" y="104.1" font-size="19" text-anchor="middle" fill="#1a1a1a" xml:space="preserve"><tspan>employee management · documents ·</tspan></text><text x="1690.5" y="128.4" font-size="19" text-anchor="middle" fill="#1a1a1a" xml:space="preserve"><tspan>organizational dashboard</tspan></text>
<rect x="242" y="307" width="402" height="128" rx="14" fill="#e6e6e6" stroke="#333333" stroke-width="1"/><text x="443" y="353.5" font-size="20" text-anchor="middle" fill="#1a1a1a" xml:space="preserve"><tspan font-weight="bold">Users and access</tspan></text><text x="443" y="378.1" font-size="19" text-anchor="middle" fill="#1a1a1a" xml:space="preserve"><tspan>registration · approval · roles ·</tspan></text><text x="443" y="402.4" font-size="19" text-anchor="middle" fill="#1a1a1a" xml:space="preserve"><tspan>data validation</tspan></text>
<rect x="683" y="307" width="402" height="128" rx="14" fill="#e6e6e6" stroke="#333333" stroke-width="1"/><text x="884" y="353.5" font-size="20" text-anchor="middle" fill="#1a1a1a" xml:space="preserve"><tspan font-weight="bold">RAG assistant</tspan></text><text x="884" y="378.1" font-size="19" text-anchor="middle" fill="#1a1a1a" xml:space="preserve"><tspan>index documents · retrieve its</tspan></text><text x="884" y="402.4" font-size="19" text-anchor="middle" fill="#1a1a1a" xml:space="preserve"><tspan>organization's context · build the prompt</tspan></text>
<rect x="1123" y="307" width="402" height="128" rx="14" fill="#e6e6e6" stroke="#333333" stroke-width="1"/><text x="1324" y="353.5" font-size="20" text-anchor="middle" fill="#1a1a1a" xml:space="preserve"><tspan font-weight="bold">Assessments</tspan></text><text x="1324" y="378.1" font-size="19" text-anchor="middle" fill="#1a1a1a" xml:space="preserve"><tspan>diagnostic · post-test · recurring ·</tspan></text><text x="1324" y="402.4" font-size="19" text-anchor="middle" fill="#1a1a1a" xml:space="preserve"><tspan>server-side scoring</tspan></text>
<rect x="1563" y="307" width="402" height="128" rx="14" fill="#e6e6e6" stroke="#333333" stroke-width="1"/><text x="1764" y="353.5" font-size="20" text-anchor="middle" fill="#1a1a1a" xml:space="preserve"><tspan font-weight="bold">Learning and metrics</tspan></text><text x="1764" y="378.1" font-size="19" text-anchor="middle" fill="#1a1a1a" xml:space="preserve"><tspan>path · recommendations · metrics and</tspan></text><text x="1764" y="402.4" font-size="19" text-anchor="middle" fill="#1a1a1a" xml:space="preserve"><tspan>AI summary for the company</tspan></text>
<rect x="242" y="581" width="402" height="128" rx="14" fill="#d9d9d9" stroke="#333333" stroke-width="1"/><text x="443" y="627.5" font-size="20" text-anchor="middle" fill="#1a1a1a" xml:space="preserve"><tspan font-weight="bold">Supabase clients</tspan></text><text x="443" y="652.1" font-size="19" text-anchor="middle" fill="#1a1a1a" xml:space="preserve"><tspan>supabaseServer · supabaseAdmin ·</tspan></text><text x="443" y="676.4" font-size="19" text-anchor="middle" fill="#1a1a1a" xml:space="preserve"><tspan>supabaseBrowser</tspan></text>
<rect x="683" y="581" width="402" height="128" rx="14" fill="#d9d9d9" stroke="#333333" stroke-width="1"/><text x="884" y="639.6" font-size="20" text-anchor="middle" fill="#1a1a1a" xml:space="preserve"><tspan font-weight="bold">Chat history</tspan></text><text x="884" y="664.3" font-size="19" text-anchor="middle" fill="#1a1a1a" xml:space="preserve"><tspan>lib/db.ts</tspan></text>
<rect x="1123" y="581" width="402" height="128" rx="14" fill="#e8eef7" stroke="#1f3a5f" stroke-width="1"/><text x="1324" y="639.6" font-size="20" text-anchor="middle" fill="#1a1a1a" xml:space="preserve"><tspan font-weight="bold">Embeddings client</tspan></text><text x="1324" y="664.3" font-size="19" text-anchor="middle" fill="#1a1a1a" xml:space="preserve"><tspan>lib/embedHF.ts · 512 chars per input</tspan></text>
<rect x="1563" y="581" width="402" height="128" rx="14" fill="#e8eef7" stroke="#1f3a5f" stroke-width="1"/><text x="1764" y="639.6" font-size="20" text-anchor="middle" fill="#1a1a1a" xml:space="preserve"><tspan font-weight="bold">LLM client</tspan></text><text x="1764" y="664.3" font-size="19" text-anchor="middle" fill="#1a1a1a" xml:space="preserve"><tspan>HTTP call to the Groq API</tspan></text>
<path d="M242,869 A274.5,14 0 0 1 791,869 L791,986 A274.5,14 0 0 1 242,986 Z" fill="#d9d9d9" stroke="#333333" stroke-width="1"/><path d="M242,869 A274.5,14 0 0 0 791,869" fill="none" stroke="#333333" stroke-width="1"/><text x="516.5" y="926.1" font-size="20" text-anchor="middle" fill="#1a1a1a" xml:space="preserve"><tspan font-weight="bold">Supabase · AWS us-west-2</tspan></text><text x="516.5" y="950.8" font-size="19" text-anchor="middle" fill="#1a1a1a" xml:space="preserve"><tspan>PostgreSQL 17 + pgvector · Auth · Storage</tspan></text>
<rect x="830" y="855" width="549" height="145" rx="14" fill="#e8eef7" stroke="#1f3a5f" stroke-width="1"/><text x="1104.5" y="922.1" font-size="20" text-anchor="middle" fill="#1a1a1a" xml:space="preserve"><tspan font-weight="bold">Hugging Face Inference</tspan></text><text x="1104.5" y="946.8" font-size="19" text-anchor="middle" fill="#1a1a1a" xml:space="preserve"><tspan>paraphrase-multilingual-MiniLM-L12-v2 · 384 dim</tspan></text>
<rect x="1416" y="855" width="549" height="145" rx="14" fill="#e8eef7" stroke="#1f3a5f" stroke-width="1"/><text x="1690.5" y="922.1" font-size="20" text-anchor="middle" fill="#1a1a1a" xml:space="preserve"><tspan font-weight="bold">Groq Cloud</tspan></text><text x="1690.5" y="946.8" font-size="19" text-anchor="middle" fill="#1a1a1a" xml:space="preserve"><tspan>openai/gpt-oss-20b · text generation</tspan></text>
<rect x="1041" y="219.125" width="124" height="27.75" fill="#ffffff"/><text x="1103" y="239.5" font-size="19" text-anchor="middle" fill="#1a1a1a" xml:space="preserve"><tspan>HTTPS · JSON</tspan></text>
<rect x="1031.5" y="493.125" width="143" height="27.75" fill="#ffffff"/><text x="1103" y="513.5" font-size="19" text-anchor="middle" fill="#1a1a1a" xml:space="preserve"><tspan>function calls</tspan></text>
<rect x="1074.25" y="767.125" width="57.5" height="27.75" fill="#ffffff"/><text x="1103" y="787.5" font-size="19" text-anchor="middle" fill="#1a1a1a" xml:space="preserve"><tspan>HTTPS</tspan></text>
<rect x="631.5" y="477.125" width="181" height="27.75" fill="#ffffff"/><text x="722" y="497.5" font-size="19" text-anchor="middle" fill="#444444" xml:space="preserve"><tspan>chat history · RLS</tspan></text>
<rect x="2" y="1072" width="32" height="22" rx="4" fill="#ffffff" stroke="#333333" stroke-width="1"/>
<text x="46" y="1089.5" font-size="19" text-anchor="start" fill="#1a1a1a" xml:space="preserve"><tspan>Presentation</tspan></text>
<rect x="274" y="1072" width="32" height="22" rx="4" fill="#e6e6e6" stroke="#333333" stroke-width="1"/>
<text x="318" y="1089.5" font-size="19" text-anchor="start" fill="#1a1a1a" xml:space="preserve"><tspan>Business logic</tspan></text>
<rect x="548" y="1072" width="32" height="22" rx="4" fill="#d9d9d9" stroke="#333333" stroke-width="1"/>
<text x="592" y="1089.5" font-size="19" text-anchor="start" fill="#1a1a1a" xml:space="preserve"><tspan>Data access</tspan></text>
<rect x="822" y="1072" width="32" height="22" rx="4" fill="#e8eef7" stroke="#1f3a5f" stroke-width="1"/>
<text x="866" y="1089.5" font-size="19" text-anchor="start" fill="#1a1a1a" xml:space="preserve"><tspan>Artificial intelligence</tspan></text>
</svg>
