<svg xmlns="http://www.w3.org/2000/svg" width="2000" height="1100" viewBox="0 0 2000 1100" font-family="Arial, Helvetica, sans-serif">
<rect width="2000" height="1100" fill="#ffffff"/>
<rect x="2" y="65" width="1996" height="285" rx="16" fill="#ffffff" stroke="#bbbbbb" stroke-width="1"/>
<rect x="2" y="65" width="1996" height="48" rx="16" fill="#f7f7f7" stroke="#bbbbbb" stroke-width="1"/><text x="1000" y="96.1" font-size="21" text-anchor="middle" fill="#1a1a1a" xml:space="preserve"><tspan font-weight="bold">Fase 1 · Indexación (administrador)</tspan></text>
<rect x="2" y="430" width="1996" height="618" rx="16" fill="#ffffff" stroke="#bbbbbb" stroke-width="1"/>
<rect x="2" y="430" width="1996" height="48" rx="16" fill="#f7f7f7" stroke="#bbbbbb" stroke-width="1"/><text x="1000" y="461.1" font-size="21" text-anchor="middle" fill="#1a1a1a" xml:space="preserve"><tspan font-weight="bold">Fase 2 · Consulta (cualquier usuario de la empresa)</tspan></text>
<path d="M350,222.5 L428,222.5" fill="none" stroke="#333333" stroke-width="1.5"/><polygon points="428.0,222.5 417.0,227.5 417.0,217.5" fill="#333333"/>
<path d="M746,222.5 L824,222.5" fill="none" stroke="#333333" stroke-width="1.5"/><polygon points="824.0,222.5 813.0,227.5 813.0,217.5" fill="#333333"/>
<path d="M1142,222.5 L1236,222.5" fill="none" stroke="#333333" stroke-width="1.5"/><polygon points="1236.0,222.5 1225.0,227.5 1225.0,217.5" fill="#333333"/>
<path d="M1538,222.5 L1633,222.5" fill="none" stroke="#333333" stroke-width="1.5"/><polygon points="1633.0,222.5 1622.0,227.5 1622.0,217.5" fill="#333333"/>
<path d="M350,587.5 L444,587.5" fill="none" stroke="#333333" stroke-width="1.5"/><polygon points="444.0,587.5 433.0,592.5 433.0,582.5" fill="#333333"/>
<path d="M746,587.5 L840,587.5" fill="none" stroke="#333333" stroke-width="1.5"/><polygon points="840.0,587.5 829.0,592.5 829.0,582.5" fill="#333333"/>
<path d="M1142,587.5 L1236,587.5" fill="none" stroke="#333333" stroke-width="1.5"/><polygon points="1236.0,587.5 1225.0,592.5 1225.0,582.5" fill="#333333"/>
<path d="M1538,587.5 L1633,587.5" fill="none" stroke="#333333" stroke-width="1.5"/><polygon points="1633.0,587.5 1622.0,592.5 1622.0,582.5" fill="#333333"/>
<path d="M1784,310 L1784.0,365.0 Q1784,373 1776.0,373.0 L1395.0,373.0 Q1387,373 1387.0,381.0 L1387,484" fill="none" stroke="#444444" stroke-width="1.2" stroke-dasharray="6 4"/><polygon points="1387.0,484.0 1382.0,473.0 1392.0,473.0" fill="#444444"/>
<path d="M1784,667 L1784,714" fill="none" stroke="#333333" stroke-width="1.5"/><polygon points="1784.0,714.0 1779.0,703.0 1789.0,703.0" fill="#333333"/>
<path d="M1633,801 L1506,801.5" fill="none" stroke="#333333" stroke-width="1.5"/><polygon points="1506.0,801.5 1517.0,796.5 1517.0,806.5" fill="#333333"/>
<path d="M1784,888 L1784.0,944.5 Q1784,952.5 1776.0,952.5 L1506,952.5" fill="none" stroke="#333333" stroke-width="1.5"/><polygon points="1506.0,952.5 1517.0,947.5 1517.0,957.5" fill="#333333"/>
<path d="M1339.5,746 L1339.5,722.0 Q1339.5,714 1331.5,714.0 L871.5,714.0 Q863.5,714 863.5,722.0 L863.5,753" fill="none" stroke="#333333" stroke-width="1.5"/><polygon points="863.5,753.0 858.5,742.0 868.5,742.0" fill="#333333"/>
<path d="M1173,952.5 L871.5,952.5 Q863.5,952.5 863.5,944.5 L863.5,896" fill="none" stroke="#333333" stroke-width="1.5"/><polygon points="863.5,896.0 868.5,907.0 858.5,907.0" fill="#333333"/>
<path d="M697,824.5 L540,824.484" fill="none" stroke="#333333" stroke-width="1.5"/><polygon points="540.0,824.5 551.0,819.5 551.0,829.5" fill="#333333"/>
<text x="3" y="35.2" font-size="27" text-anchor="start" fill="#1a1a1a" xml:space="preserve"><tspan font-weight="bold">Flujo RAG de CyberChat</tspan></text>
<rect x="48" y="143" width="302" height="159" rx="20" fill="#ffffff" stroke="#333333" stroke-width="1"/><text x="199" y="193.2" font-size="21" text-anchor="middle" fill="#1a1a1a" xml:space="preserve"><tspan>Sube el documento</tspan></text><text x="199" y="218.1" font-size="19" text-anchor="middle" fill="#1a1a1a" xml:space="preserve"><tspan>PDF, DOCX o TXT · máx. 10</tspan></text><text x="199" y="242.4" font-size="19" text-anchor="middle" fill="#1a1a1a" xml:space="preserve"><tspan>MiB · sin OCR: un PDF</tspan></text><text x="199" y="266.7" font-size="19" text-anchor="middle" fill="#1a1a1a" xml:space="preserve"><tspan>escaneado sin texto se rechaza</tspan></text>
<rect x="428" y="143" width="318" height="159" rx="20" fill="#ffffff" stroke="#333333" stroke-width="1"/><text x="587" y="205.3" font-size="21" text-anchor="middle" fill="#1a1a1a" xml:space="preserve"><tspan>Extrae y limpia el texto</tspan></text><text x="587" y="230.2" font-size="19" text-anchor="middle" fill="#1a1a1a" xml:space="preserve"><tspan>pdf-extraction (PDF) · mammoth</tspan></text><text x="587" y="254.6" font-size="19" text-anchor="middle" fill="#1a1a1a" xml:space="preserve"><tspan>(DOCX) · UTF-8 (TXT)</tspan></text>
<rect x="824" y="143" width="318" height="159" rx="20" fill="#ffffff" stroke="#333333" stroke-width="1"/><text x="983" y="205.3" font-size="21" text-anchor="middle" fill="#1a1a1a" xml:space="preserve"><tspan>Fragmenta por oraciones</tspan></text><text x="983" y="230.2" font-size="19" text-anchor="middle" fill="#1a1a1a" xml:space="preserve"><tspan>máximo 800 caracteres por</tspan></text><text x="983" y="254.6" font-size="19" text-anchor="middle" fill="#1a1a1a" xml:space="preserve"><tspan>fragmento · solape de 1 oración</tspan></text>
<rect x="1236" y="143" width="302" height="159" rx="20" fill="#e8eef7" stroke="#1f3a5f" stroke-width="2" stroke-dasharray="8 5"/><text x="1387" y="167.6" font-size="21" text-anchor="middle" fill="#1a1a1a" xml:space="preserve"><tspan>Genera un embedding</tspan></text><text x="1387" y="194.4" font-size="21" text-anchor="middle" fill="#1a1a1a" xml:space="preserve"><tspan>por fragmento</tspan></text><text x="1387" y="219.4" font-size="19" text-anchor="middle" fill="#1a1a1a" xml:space="preserve"><tspan>Hugging Face · paraphrase-</tspan></text><text x="1387" y="243.7" font-size="19" text-anchor="middle" fill="#1a1a1a" xml:space="preserve"><tspan>multilingual-MiniLM-L12-v2 ·</tspan></text><text x="1387" y="268.0" font-size="19" text-anchor="middle" fill="#1a1a1a" xml:space="preserve"><tspan>384 dim. · solo los primeros</tspan></text><text x="1387" y="292.3" font-size="19" text-anchor="middle" fill="#1a1a1a" xml:space="preserve"><tspan>512 caracteres</tspan></text>
<path d="M1633,149 A151,14 0 0 1 1935,149 L1935,296 A151,14 0 0 1 1633,296 Z" fill="#ffffff" stroke="#333333" stroke-width="1"/><path d="M1633,149 A151,14 0 0 0 1935,149" fill="none" stroke="#333333" stroke-width="1"/><text x="1784" y="185.0" font-size="21" text-anchor="middle" fill="#1a1a1a" xml:space="preserve"><tspan>Guarda en Supabase</tspan></text><text x="1784" y="209.9" font-size="19" text-anchor="middle" fill="#1a1a1a" xml:space="preserve"><tspan>archivo en Storage · fragmentos</tspan></text><text x="1784" y="234.2" font-size="19" text-anchor="middle" fill="#1a1a1a" xml:space="preserve"><tspan>y vectores en PostgreSQL con</tspan></text><text x="1784" y="258.6" font-size="19" text-anchor="middle" fill="#1a1a1a" xml:space="preserve"><tspan>pgvector (índice HNSW,</tspan></text><text x="1784" y="282.9" font-size="19" text-anchor="middle" fill="#1a1a1a" xml:space="preserve"><tspan>distancia coseno)</tspan></text>
<rect x="48" y="508" width="302" height="159" rx="20" fill="#e6e6e6" stroke="#333333" stroke-width="1"/><text x="199" y="558.2" font-size="21" text-anchor="middle" fill="#1a1a1a" xml:space="preserve"><tspan>El usuario pregunta en el chat</tspan></text><text x="199" y="583.1" font-size="19" text-anchor="middle" fill="#1a1a1a" xml:space="preserve"><tspan>el servidor recibe el historial;</tspan></text><text x="199" y="607.4" font-size="19" text-anchor="middle" fill="#1a1a1a" xml:space="preserve"><tspan>la búsqueda usa solo el último</tspan></text><text x="199" y="631.7" font-size="19" text-anchor="middle" fill="#1a1a1a" xml:space="preserve"><tspan>mensaje</tspan></text>
<rect x="444" y="508" width="302" height="159" rx="20" fill="#e6e6e6" stroke="#333333" stroke-width="1"/><text x="595" y="558.2" font-size="21" text-anchor="middle" fill="#1a1a1a" xml:space="preserve"><tspan>Autentica al usuario</tspan></text><text x="595" y="583.1" font-size="19" text-anchor="middle" fill="#1a1a1a" xml:space="preserve"><tspan>sesión de Supabase Auth · cuenta</tspan></text><text x="595" y="607.4" font-size="19" text-anchor="middle" fill="#1a1a1a" xml:space="preserve"><tspan>activa · rol y RUC leídos de</tspan></text><text x="595" y="631.7" font-size="19" text-anchor="middle" fill="#1a1a1a" xml:space="preserve"><tspan>app_metadata</tspan></text>
<rect x="840" y="508" width="302" height="159" rx="20" fill="#e8eef7" stroke="#1f3a5f" stroke-width="2" stroke-dasharray="8 5"/><text x="991" y="556.9" font-size="21" text-anchor="middle" fill="#1a1a1a" xml:space="preserve"><tspan>Genera el embedding</tspan></text><text x="991" y="583.8" font-size="21" text-anchor="middle" fill="#1a1a1a" xml:space="preserve"><tspan>de la consulta</tspan></text><text x="991" y="608.7" font-size="19" text-anchor="middle" fill="#1a1a1a" xml:space="preserve"><tspan>mismo modelo que la fase 1 ·</tspan></text><text x="991" y="633.0" font-size="19" text-anchor="middle" fill="#1a1a1a" xml:space="preserve"><tspan>primeros 512 caracteres</tspan></text>
<rect x="1236" y="484" width="302" height="207" rx="20" fill="#e8eef7" stroke="#1f3a5f" stroke-width="1"/><text x="1387" y="532.6" font-size="21" text-anchor="middle" fill="#1a1a1a" xml:space="preserve"><tspan>Resuelve la organización</tspan></text><text x="1387" y="559.4" font-size="21" text-anchor="middle" fill="#1a1a1a" xml:space="preserve"><tspan>y busca</tspan></text><text x="1387" y="584.4" font-size="19" text-anchor="middle" fill="#1a1a1a" xml:space="preserve"><tspan>RUC de la sesión → administrador</tspan></text><text x="1387" y="608.7" font-size="19" text-anchor="middle" fill="#1a1a1a" xml:space="preserve"><tspan>dueño (si no existe, usa el id</tspan></text><text x="1387" y="633.0" font-size="19" text-anchor="middle" fill="#1a1a1a" xml:space="preserve"><tspan>del propio usuario) · coseno</tspan></text><text x="1387" y="657.3" font-size="19" text-anchor="middle" fill="#1a1a1a" xml:space="preserve"><tspan>con índice HNSW · 5 candidatos</tspan></text>
<rect x="1633" y="508" width="302" height="159" rx="20" fill="#e6e6e6" stroke="#333333" stroke-width="1"/><text x="1784" y="558.2" font-size="21" text-anchor="middle" fill="#1a1a1a" xml:space="preserve"><tspan>Filtra los resultados</tspan></text><text x="1784" y="583.1" font-size="19" text-anchor="middle" fill="#1a1a1a" xml:space="preserve"><tspan>quita duplicados (primeros 100</tspan></text><text x="1784" y="607.4" font-size="19" text-anchor="middle" fill="#1a1a1a" xml:space="preserve"><tspan>caracteres) · descarta similitud</tspan></text><text x="1784" y="631.7" font-size="19" text-anchor="middle" fill="#1a1a1a" xml:space="preserve"><tspan>&lt; 0.38 · no repone candidatos</tspan></text>
<polygon points="1784,714 1935,801 1784,888 1633,801" fill="#e6e6e6" stroke="#333333" stroke-width="1"/><text x="1784" y="808.1" font-size="21" text-anchor="middle" fill="#1a1a1a" xml:space="preserve"><tspan>¿Quedan fragmentos?</tspan></text>
<rect x="1173" y="746" width="333" height="111" rx="20" fill="#e6e6e6" stroke="#333333" stroke-width="1"/><text x="1339.5" y="796.5" font-size="21" text-anchor="middle" fill="#1a1a1a" xml:space="preserve"><tspan>Prompt con contexto documental</tspan></text><text x="1339.5" y="821.4" font-size="19" text-anchor="middle" fill="#1a1a1a" xml:space="preserve"><tspan>fragmentos + reglas de alcance</tspan></text>
<rect x="1173" y="889" width="333" height="127" rx="20" fill="#e6e6e6" stroke="#333333" stroke-width="1"/><text x="1339.5" y="935.3" font-size="21" text-anchor="middle" fill="#1a1a1a" xml:space="preserve"><tspan>Prompt de conocimiento general</tspan></text><text x="1339.5" y="960.2" font-size="19" text-anchor="middle" fill="#1a1a1a" xml:space="preserve"><tspan>responde sin respaldo documental ·</tspan></text><text x="1339.5" y="984.6" font-size="19" text-anchor="middle" fill="#1a1a1a" xml:space="preserve"><tspan>sugiere subir documentos</tspan></text>
<rect x="697" y="753" width="333" height="143" rx="20" fill="#e8eef7" stroke="#1f3a5f" stroke-width="2" stroke-dasharray="8 5"/><text x="863.5" y="795.2" font-size="21" text-anchor="middle" fill="#1a1a1a" xml:space="preserve"><tspan>El LLM genera la respuesta</tspan></text><text x="863.5" y="820.1" font-size="19" text-anchor="middle" fill="#1a1a1a" xml:space="preserve"><tspan>Groq · openai/gpt-oss-20b · últimos</tspan></text><text x="863.5" y="844.4" font-size="19" text-anchor="middle" fill="#1a1a1a" xml:space="preserve"><tspan>12 mensajes · temp. 0.15 · máx. 900</tspan></text><text x="863.5" y="868.7" font-size="19" text-anchor="middle" fill="#1a1a1a" xml:space="preserve"><tspan>tokens</tspan></text>
<rect x="207" y="762" width="333" height="127" rx="20" fill="#e6e6e6" stroke="#333333" stroke-width="1"/><text x="373.5" y="796.2" font-size="21" text-anchor="middle" fill="#1a1a1a" xml:space="preserve"><tspan>Respuesta al usuario</tspan></text><text x="373.5" y="821.1" font-size="19" text-anchor="middle" fill="#1a1a1a" xml:space="preserve"><tspan>indica si usó contexto ·</tspan></text><text x="373.5" y="845.4" font-size="19" text-anchor="middle" fill="#1a1a1a" xml:space="preserve"><tspan>fuentes con % de similitud y</tspan></text><text x="373.5" y="869.7" font-size="19" text-anchor="middle" fill="#1a1a1a" xml:space="preserve"><tspan>vista previa (220 caracteres)</tspan></text>
<rect x="1457" y="359.125" width="200" height="27.75" fill="#ffffff"/><text x="1557" y="379.5" font-size="19" text-anchor="middle" fill="#1a1a1a" xml:space="preserve"><tspan>base de conocimiento</tspan></text>
<rect x="1555.5" y="787.125" width="29" height="27.75" fill="#ffffff"/><text x="1570" y="807.5" font-size="19" text-anchor="middle" fill="#1a1a1a" xml:space="preserve"><tspan>Sí</tspan></text>
<rect x="1661.5" y="938.125" width="29" height="27.75" fill="#ffffff"/><text x="1676" y="958.5" font-size="19" text-anchor="middle" fill="#1a1a1a" xml:space="preserve"><tspan>No</tspan></text>
<rect x="2" y="1068" width="32" height="22" rx="4" fill="#ffffff" stroke="#333333" stroke-width="1"/>
<text x="46" y="1085.5" font-size="19" text-anchor="start" fill="#1a1a1a" xml:space="preserve"><tspan>Indexación</tspan></text>
<rect x="318" y="1068" width="32" height="22" rx="4" fill="#e6e6e6" stroke="#333333" stroke-width="1"/>
<text x="362" y="1085.5" font-size="19" text-anchor="start" fill="#1a1a1a" xml:space="preserve"><tspan>Consulta</tspan></text>
<rect x="635" y="1068" width="32" height="22" rx="4" fill="#e8eef7" stroke="#1f3a5f" stroke-width="1"/>
<text x="679" y="1085.5" font-size="19" text-anchor="start" fill="#1a1a1a" xml:space="preserve"><tspan>Paso con IA o búsqueda vectorial</tspan></text>
<rect x="1108" y="1068" width="32" height="22" rx="4" fill="#e8eef7" stroke="#1f3a5f" stroke-width="2" stroke-dasharray="8 5"/>
<text x="1152" y="1085.5" font-size="19" text-anchor="start" fill="#1a1a1a" xml:space="preserve"><tspan>Envía texto a un servicio externo (Hugging Face o Groq)</tspan></text>
</svg>
